<?xml version="1.0" encoding="UTF-8" standalone="no"?>
<svg xmlns:ffdec="https://www.free-decompiler.com/flash" xmlns:xlink="http://www.w3.org/1999/xlink" ffdec:objectType="shape" height="31.35px" width="31.6px" xmlns="http://www.w3.org/2000/svg">
  <g transform="matrix(1.0, 0.0, 0.0, 1.0, 15.8, 15.65)">
    <path d="M7.5 -9.95 Q7.5 -10.6 8.1 -10.85 L8.65 -11.0 Q10.3 -10.6 9.6 -9.15 9.4 -8.6 8.85 -8.6 7.4 -8.55 7.5 -9.95 M2.4 -6.45 Q0.8 -6.75 0.7 -8.4 0.6 -9.9 2.05 -10.15 3.2 -10.0 3.3 -8.9 L3.3 -8.8 Q4.5 -7.55 3.05 -6.6 L2.4 -6.45 M4.8 -0.75 Q5.9 -0.4 6.65 0.6 L7.05 1.0 10.7 4.05 10.85 4.6 Q10.4 6.15 8.95 5.45 L7.85 4.85 Q5.45 3.4 3.85 1.15 3.3 0.4 3.85 -0.25 4.25 -0.75 4.8 -0.75 M15.6 2.6 L15.1 3.3 14.05 4.15 12.6 4.1 Q11.9 3.5 12.3 2.6 13.05 1.05 14.65 0.75 16.3 1.15 15.6 2.6 M5.0 9.75 Q4.8 10.95 4.2 12.0 3.95 12.45 3.4 12.4 2.0 12.25 2.2 10.9 L2.3 8.9 Q2.25 7.45 3.65 7.25 5.3 7.8 5.0 9.75 M9.15 15.2 Q7.7 15.6 6.5 14.85 L6.1 14.2 Q6.0 12.9 7.3 12.85 L9.05 12.6 Q10.9 13.1 9.9 14.65 L9.15 15.2 M-7.85 -13.7 Q-8.2 -12.95 -9.05 -13.1 -10.3 -13.4 -10.0 -14.7 -9.75 -15.6 -8.85 -15.65 -7.2 -15.25 -7.85 -13.7 M-15.5 -3.5 L-15.75 -3.8 Q-16.1 -5.25 -14.6 -5.5 -10.9 -4.9 -7.7 -2.85 L-4.95 -0.95 Q-4.05 -0.2 -4.65 0.7 -5.3 1.65 -6.25 1.05 L-9.05 -0.75 Q-10.8 -1.85 -12.75 -2.4 -14.2 -2.8 -15.5 -3.5 M-6.6 -9.55 L-5.55 -8.45 Q-4.95 -7.75 -5.55 -7.0 -6.35 -5.95 -7.45 -6.8 L-9.9 -9.15 Q-10.2 -9.45 -10.05 -9.9 -9.8 -10.85 -8.85 -10.9 -7.65 -10.4 -6.6 -9.55 M-2.25 5.85 L-2.7 6.5 Q-4.3 7.9 -6.2 8.7 -6.6 8.9 -7.0 8.7 -8.45 8.1 -7.55 6.8 L-6.75 6.2 -6.3 5.9 Q-4.8 4.7 -3.2 4.0 -1.55 4.4 -2.25 5.85 M-3.6 12.1 Q-1.9 12.55 -2.7 14.05 L-3.1 14.6 Q-4.1 15.6 -5.4 15.7 L-6.15 15.3 Q-6.85 14.05 -5.55 13.1 L-4.05 12.25 -3.6 12.1 M-13.4 6.6 Q-13.6 7.15 -14.15 7.15 -15.6 7.2 -15.5 5.8 -15.5 5.15 -14.9 4.9 L-14.35 4.75 Q-12.7 5.15 -13.4 6.6" fill="#7c4707" fill-rule="evenodd" stroke="none"/>
  </g>
</svg>
