<?xml version="1.0" encoding="UTF-8" standalone="no"?>
<svg xmlns:ffdec="https://www.free-decompiler.com/flash" xmlns:xlink="http://www.w3.org/1999/xlink" ffdec:objectType="shape" height="82.75px" width="36.1px" xmlns="http://www.w3.org/2000/svg">
  <g transform="matrix(1.0, 0.0, 0.0, 1.0, 0.0, 0.0)">
    <path d="M28.45 73.6 L28.6 80.25 8.45 82.25 8.25 78.25 Q10.45 74.9 12.85 66.45 15.2 58.2 16.6 56.25 L17.9 54.75 Q18.65 53.85 19.45 53.45 L25.05 51.85 Q30.0 54.35 30.55 61.5 30.85 65.75 29.4 73.3 L28.35 73.25 28.45 73.6" fill="#3d58a7" fill-rule="evenodd" stroke="none"/>
    <path d="M28.45 73.6 L28.6 80.25 8.45 82.25 8.25 78.25 Q10.45 74.9 12.85 66.45 15.2 58.2 16.6 56.25 L17.9 54.75 Q18.65 53.85 19.45 53.45 L25.05 51.85 Q30.0 54.35 30.55 61.5 30.85 65.75 29.4 73.3 26.1 73.0 23.85 73.25 L18.95 73.6 Q18.55 71.75 19.35 68.65 L20.75 63.75 Q22.95 57.6 23.45 54.75" fill="none" stroke="#373535" stroke-linecap="round" stroke-linejoin="round" stroke-width="1.0"/>
    <path d="M22.25 0.45 L29.65 2.45 33.2 5.3 35.2 9.7 35.6 14.75 34.95 18.6 30.95 28.7 27.0 36.7 25.25 43.95 24.8 51.9 23.95 52.7 21.0 53.7 19.5 53.5 20.75 47.5 20.85 45.1 20.0 44.0 18.25 43.35 15.35 42.95 13.0 42.95 10.75 43.75 9.0 43.95 7.95 42.85 7.45 40.45 7.7 38.85 8.7 37.1 8.95 35.6 8.45 34.45 7.45 34.95 8.35 32.2 8.2 29.5 7.6 27.85 6.0 26.95 3.7 26.5 2.0 26.6 0.6 24.2 1.6 21.5 6.25 19.45 7.0 17.2 7.5 13.85 8.5 10.2 9.6 8.1 9.6 3.3 11.2 2.95 15.1 1.6 22.25 0.45" fill="#f6d3b3" fill-rule="evenodd" stroke="none"/>
    <path d="M10.15 6.9 Q8.5 9.25 7.6 12.6 6.95 15.1 6.55 18.9 L6.6 19.3 Q-0.5 21.25 0.65 24.95 1.25 26.85 3.5 26.8 L7.05 27.15 Q8.35 28.05 8.3 30.85 8.25 33.25 7.45 34.95 9.55 33.75 11.85 34.3 L16.2 36.0" fill="none" stroke="#373535" stroke-linecap="round" stroke-linejoin="round" stroke-width="1.0"/>
    <path d="M12.3 22.15 L12.45 22.4 Q10.2 19.8 13.05 14.0 L12.95 14.25 Q15.1 13.8 16.3 15.25 17.3 16.55 17.15 18.6 16.95 20.6 15.75 21.7 14.35 22.95 12.3 22.15" fill="#ffffff" fill-rule="evenodd" stroke="none"/>
    <path d="M12.3 22.15 Q14.35 22.95 15.75 21.7 16.95 20.6 17.15 18.6 17.3 16.55 16.3 15.25 15.1 13.8 12.95 14.25 L13.05 14.0 Q10.2 19.8 12.45 22.4 L12.3 22.15 Z" fill="none" stroke="#373535" stroke-linecap="round" stroke-linejoin="round" stroke-width="1.0"/>
    <path d="M12.2 17.15 Q12.75 16.3 13.15 17.15 13.55 17.95 13.4 18.65 13.25 19.4 12.6 19.8 11.85 20.2 11.55 19.25 L12.2 17.15" fill="#373535" fill-rule="evenodd" stroke="none"/>
    <path d="M34.85 18.4 Q33.85 22.2 31.4 27.5 L27.5 35.45 27.25 36.15 27.0 36.2 24.8 35.25 Q23.75 34.6 23.4 33.4 22.5 30.25 22.95 28.15 24.05 30.3 25.15 27.75 26.1 25.75 26.15 24.0 26.25 21.2 24.5 21.45 23.6 21.6 22.85 22.95 L21.9 25.1 18.3 25.0 Q21.3 22.7 22.7 18.5 L22.75 18.35 Q23.9 15.85 23.85 13.9 23.75 9.25 19.05 7.35 15.3 5.85 10.3 6.4 L9.8 6.75 Q9.4 5.95 9.4 4.7 L9.55 2.55 13.0 2.4 16.55 1.0 23.5 0.55 Q26.85 0.7 29.65 2.45 37.65 7.45 34.85 18.4" fill="#5b402b" fill-rule="evenodd" stroke="none"/>
    <path d="M34.85 18.4 Q33.85 22.2 31.4 27.5 L27.5 35.45 27.25 36.15 27.0 36.2 24.8 35.25 Q23.75 34.6 23.4 33.4 22.5 30.25 22.95 28.15 24.05 30.3 25.15 27.75 26.1 25.75 26.15 24.0 26.25 21.2 24.5 21.45 23.6 21.6 22.85 22.95 L21.9 25.1 18.3 25.0 Q21.3 22.7 22.7 18.5 L22.75 18.35 Q23.9 15.85 23.85 13.9 23.75 9.25 19.05 7.35 15.3 5.85 10.3 6.4 L9.8 6.75 Q9.4 5.95 9.4 4.7 L9.55 2.55 13.0 2.4 16.55 1.0 23.5 0.55 Q26.85 0.7 29.65 2.45 37.65 7.45 34.85 18.4 Z" fill="none" stroke="#373535" stroke-linecap="round" stroke-linejoin="round" stroke-width="1.0"/>
    <path d="M8.55 34.75 Q9.1 36.2 8.3 37.8 7.25 39.8 7.2 40.65 7.1 42.3 7.9 43.35 8.8 44.5 10.3 44.05 L12.85 43.15 Q14.25 42.6 15.5 42.7 19.75 43.05 20.5 44.2 21.1 45.2 20.45 48.35 L19.5 52.6 19.5 53.5 22.4 53.35 23.5 52.95 24.6 52.5 24.8 51.9 Q24.55 43.2 27.1 36.25" fill="none" stroke="#373535" stroke-linecap="round" stroke-linejoin="round" stroke-width="1.0"/>
    <path d="M24.45 73.45 L24.1 76.6 Q23.85 78.55 23.1 79.4 L19.75 79.25 20.65 76.55 Q21.2 74.85 20.75 73.75 L24.45 73.45" fill="#f4d3b5" fill-rule="evenodd" stroke="none"/>
    <path d="M24.45 73.45 L24.1 76.6 Q23.85 78.55 23.1 79.4 L19.75 79.25 20.65 76.55 Q21.2 74.85 20.75 73.75" fill="none" stroke="#373535" stroke-linecap="round" stroke-linejoin="round" stroke-width="1.0"/>
    <path d="M12.45 11.25 Q13.8 9.2 15.65 10.45 17.1 11.45 17.95 13.5" fill="none" stroke="#373535" stroke-linecap="round" stroke-linejoin="round" stroke-width="1.0"/>
  </g>
</svg>
