<?xml version="1.0" encoding="UTF-8" standalone="no"?>
<svg xmlns:ffdec="https://www.free-decompiler.com/flash" xmlns:xlink="http://www.w3.org/1999/xlink" ffdec:objectType="shape" height="75.75px" width="129.95px" xmlns="http://www.w3.org/2000/svg">
  <g transform="matrix(1.0, 0.0, 0.0, 1.0, 60.45, 148.2)">
    <path d="M12.45 -147.25 Q22.25 -149.55 31.7 -146.3 37.15 -144.55 40.35 -139.8 41.65 -137.8 39.8 -136.55 49.25 -140.45 57.1 -134.6 60.4 -132.15 62.2 -128.35 64.65 -123.0 61.25 -119.15 59.95 -117.6 58.15 -117.7 66.15 -116.0 68.65 -108.2 70.05 -103.95 69.2 -99.65 68.3 -95.3 64.75 -93.1 61.45 -91.05 58.15 -92.8 L57.9 -93.25 57.8 -92.95 Q54.75 -85.85 48.5 -81.3 45.7 -79.25 42.4 -78.4 L31.85 -77.95 31.3 -78.95 30.9 -80.1 30.6 -81.25 30.4 -82.5 30.05 -82.25 Q19.4 -75.5 7.3 -73.45 -0.3 -72.1 -8.05 -72.6 -14.45 -73.45 -19.85 -76.7 -21.85 -78.0 -22.9 -80.2 -31.65 -73.65 -40.25 -79.5 -49.55 -85.75 -48.4 -96.45 L-48.8 -97.25 Q-57.75 -100.2 -60.1 -109.05 -61.4 -113.9 -58.05 -117.65 -55.3 -120.65 -51.75 -122.7 -49.3 -124.05 -46.9 -125.55 -47.5 -135.2 -39.2 -138.7 -36.1 -139.95 -32.8 -139.55 -31.75 -139.65 -31.15 -140.35 -24.7 -147.45 -15.1 -147.25 -6.25 -145.5 2.55 -145.5 7.5 -146.05 12.45 -147.25" fill="#ffffcc" fill-rule="evenodd" stroke="none"/>
  </g>
</svg>
